# xmcd
#
# Track frame offsets: 
#        150
#        10156
#        20654
#        34752
#        47187
#        53348
#
# Disc length: 1113 seconds
#
# Revision: 0
# Processed by: cddbd v1.5.1PL2 Copyright (c) Steve Scherf et al.
# Submitted via: ExactAudioCopy v0.95b2
#
DISCID=40045706
DTITLE=Ferocious Eagle - Ferocious Eagle [demo]
DYEAR=2005
DGENRE=Math Rock
TTITLE0=Transformer
TTITLE1=Dinosaur
TTITLE2=Be Not Weary, Be Not Weak
TTITLE3=I Just Don't Care About It
TTITLE4=Rape Whistle
TTITLE5=Something She Said
EXTD=
EXTT0=
EXTT1=
EXTT2=
EXTT3=
EXTT4=
EXTT5=
PLAYORDER=
